<svg width="102" height="102" viewBox="0 0 102 102" fill="none" xmlns="http://www.w3.org/2000/svg">
<g filter="url(#filter0_d_152_5150)">
<circle cx="51" cy="47" r="30" transform="rotate(-180 51 47)" fill="#0D111B"/>
<circle cx="51" cy="47" r="29.5" transform="rotate(-180 51 47)" stroke="white" stroke-opacity="0.11"/>
<g opacity="0.5">
<path d="M50.2919 53.366C50.4794 53.1785 50.5848 52.9241 50.5848 52.6589C50.5848 52.3937 50.4794 52.1394 50.2919 51.9518L46.3391 47.9991L58.07 48.0062C58.3363 48.0062 58.5917 47.9004 58.78 47.7121C58.9683 47.5238 59.0741 47.2684 59.0741 47.0021C59.0741 46.7358 58.9683 46.4804 58.78 46.2921C58.5917 46.1038 58.3363 45.998 58.07 45.998L46.3391 46.0051L50.2919 42.0523C50.4794 41.8648 50.5848 41.6104 50.5848 41.3452C50.5848 41.08 50.4794 40.8257 50.2919 40.6381C50.1043 40.4506 49.85 40.3452 49.5848 40.3452C49.3195 40.3452 49.0652 40.4506 48.8777 40.6381L43.2208 46.295C43.0333 46.4825 42.9279 46.7369 42.9279 47.0021C42.9279 47.2673 43.0333 47.5216 43.2208 47.7092L48.8776 53.366C49.0652 53.5536 49.3195 53.6589 49.5848 53.6589C49.85 53.6589 50.1043 53.5536 50.2919 53.366Z" fill="white"/>
</g>
</g>
<defs>
<filter id="filter0_d_152_5150" x="0" y="0" width="102" height="102" filterUnits="userSpaceOnUse" color-interpolation-filters="sRGB">
<feFlood flood-opacity="0" result="BackgroundImageFix"/>
<feColorMatrix in="SourceAlpha" type="matrix" values="0 0 0 0 0 0 0 0 0 0 0 0 0 0 0 0 0 0 127 0" result="hardAlpha"/>
<feOffset dy="4"/>
<feGaussianBlur stdDeviation="10.5"/>
<feComposite in2="hardAlpha" operator="out"/>
<feColorMatrix type="matrix" values="0 0 0 0 0 0 0 0 0 0 0 0 0 0 0 0 0 0 0.59 0"/>
<feBlend mode="normal" in2="BackgroundImageFix" result="effect1_dropShadow_152_5150"/>
<feBlend mode="normal" in="SourceGraphic" in2="effect1_dropShadow_152_5150" result="shape"/>
</filter>
</defs>
</svg>
