<svg width="102" height="102" viewBox="0 0 102 102" fill="none" xmlns="http://www.w3.org/2000/svg">
<g filter="url(#filter0_d_152_5146)">
<circle cx="51" cy="47" r="30" fill="#0D111B"/>
<circle cx="51" cy="47" r="29.5" stroke="white" stroke-opacity="0.11"/>
<path d="M51.7081 40.634C51.5206 40.8215 51.4152 41.0759 51.4152 41.3411C51.4152 41.6063 51.5206 41.8606 51.7081 42.0482L55.6609 46.0009L43.93 45.9938C43.6637 45.9938 43.4083 46.0996 43.22 46.2879C43.0317 46.4762 42.9259 46.7316 42.9259 46.9979C42.9259 47.2642 43.0317 47.5196 43.22 47.7079C43.4083 47.8962 43.6637 48.002 43.93 48.002L55.6609 47.9949L51.7081 51.9477C51.5206 52.1352 51.4152 52.3896 51.4152 52.6548C51.4152 52.92 51.5206 53.1743 51.7081 53.3619C51.8957 53.5494 52.15 53.6548 52.4152 53.6548C52.6805 53.6548 52.9348 53.5494 53.1224 53.3619L58.7792 47.705C58.9667 47.5175 59.0721 47.2631 59.0721 46.9979C59.0721 46.7327 58.9667 46.4784 58.7792 46.2908L53.1224 40.634C52.9348 40.4464 52.6805 40.3411 52.4152 40.3411C52.15 40.3411 51.8957 40.4464 51.7081 40.634Z" fill="white"/>
</g>
<defs>
<filter id="filter0_d_152_5146" x="0" y="0" width="102" height="102" filterUnits="userSpaceOnUse" color-interpolation-filters="sRGB">
<feFlood flood-opacity="0" result="BackgroundImageFix"/>
<feColorMatrix in="SourceAlpha" type="matrix" values="0 0 0 0 0 0 0 0 0 0 0 0 0 0 0 0 0 0 127 0" result="hardAlpha"/>
<feOffset dy="4"/>
<feGaussianBlur stdDeviation="10.5"/>
<feComposite in2="hardAlpha" operator="out"/>
<feColorMatrix type="matrix" values="0 0 0 0 0 0 0 0 0 0 0 0 0 0 0 0 0 0 0.59 0"/>
<feBlend mode="normal" in2="BackgroundImageFix" result="effect1_dropShadow_152_5146"/>
<feBlend mode="normal" in="SourceGraphic" in2="effect1_dropShadow_152_5146" result="shape"/>
</filter>
</defs>
</svg>
