<svg width="181" height="181" viewBox="0 0 181 181" fill="none" xmlns="http://www.w3.org/2000/svg">
<g id="Group 1">
<g id="Ellipse 10" filter="url(#filter0_d_14_82)">
<circle cx="90.5" cy="86.5" r="52.5" fill="#151822"/>
</g>
<g id="Group">
<path id="Vector" d="M81.07 84.0112L91.2737 73.7103L101.482 84.0196L107.415 78.0226L91.2737 61.7162L75.132 78.0184L81.07 84.0112Z" fill="#F3BA2F"/>
<path id="Vector_2" d="M65 88.2472L70.9358 82.2523L76.8716 88.2472L70.9358 94.242L65 88.2472Z" fill="#F3BA2F"/>
<path id="Vector_3" d="M81.0694 92.481L91.2731 102.786L101.481 92.4768L107.419 98.4655L107.415 98.4697L91.2731 114.776L75.1313 98.478L75.123 98.4697L81.0694 92.481Z" fill="#F3BA2F"/>
<path id="Vector_4" d="M105.664 88.2485L111.6 82.2537L117.536 88.2485L111.6 94.2434L105.664 88.2485Z" fill="#F3BA2F"/>
<path id="Vector_5" d="M97.2941 88.2439L91.2731 82.1588L86.8207 86.6556L86.3062 87.171L85.2522 88.2355L85.2439 88.2439L85.2522 88.2564L91.2731 94.3331L97.2941 88.2481L97.2982 88.2439H97.2941Z" fill="#F3BA2F"/>
</g>
</g>
<defs>
<filter id="filter0_d_14_82" x="0" y="0" width="181" height="181" filterUnits="userSpaceOnUse" color-interpolation-filters="sRGB">
<feFlood flood-opacity="0" result="BackgroundImageFix"/>
<feColorMatrix in="SourceAlpha" type="matrix" values="0 0 0 0 0 0 0 0 0 0 0 0 0 0 0 0 0 0 127 0" result="hardAlpha"/>
<feOffset dy="4"/>
<feGaussianBlur stdDeviation="19"/>
<feComposite in2="hardAlpha" operator="out"/>
<feColorMatrix type="matrix" values="0 0 0 0 0 0 0 0 0 0 0 0 0 0 0 0 0 0 0.25 0"/>
<feBlend mode="normal" in2="BackgroundImageFix" result="effect1_dropShadow_14_82"/>
<feBlend mode="normal" in="SourceGraphic" in2="effect1_dropShadow_14_82" result="shape"/>
</filter>
</defs>
</svg>
